<svg width="30" height="30" fill="none" xmlns="http://www.w3.org/2000/svg"><rect width="30" height="30" rx="5" fill="#6091F8"/><path d="M15 5.84c-3.752 0-7.316-.333-8.677 3.16-.562 1.442-.48 3.316-.48 5.999 0 2.354-.076 4.567.48 5.998 1.358 3.495 4.95 3.16 8.675 3.16 3.593 0 7.298.374 8.676-3.16.563-1.457.48-3.303.48-5.998 0-3.578.198-5.888-1.537-7.622C20.86 5.62 18.484 5.84 14.996 5.84H15zm-.82 1.65c7.827-.012 8.823-.882 8.273 11.206-.195 4.276-3.45 3.807-7.452 3.807-7.296 0-7.506-.21-7.506-7.508 0-7.384.579-7.5 6.685-7.506v.002zm5.708 1.521a1.099 1.099 0 100 2.197 1.099 1.099 0 000-2.197zM15 10.296a4.703 4.703 0 10.002 9.405A4.703 4.703 0 0015 10.296zm0 1.65c4.036 0 4.04 6.106 0 6.106-4.034 0-4.04-6.106 0-6.106z" fill="#fff"/></svg>