<svg width="30" height="30" fill="none" xmlns="http://www.w3.org/2000/svg"><rect width="30" height="30" rx="5" fill="#6091F8"/><path d="M24.23 9.01c.07-.035.14.034.176.068l1.372 1.345c1.372 1.31 2.674 2.621 4.046 3.932.07.069.14.138.14.207 0 .034 0 .103.036.103v1.449c-.035 0-.035.034-.035.069-.035.896.032 7.957.032 7.957s0 5.274-5.381 5.86h-5.98s-.634-.575-.74-.713c-.739-.724-1.477-1.448-2.252-2.172-.387-.38-.774-.793-1.196-1.138-.422-.38-.774-.76-1.196-1.138-.458-.414-.88-.863-1.337-1.276-.282-.242-.528-.518-.81-.76-.035-.034-.105-.068-.105-.137.035 0 .035-.035.07-.035.07 0 .141-.069.176-.103 1.126-.793 2.252-1.586 3.378-2.414.317-.242.669-.448.95-.69.035 0 .106.035.14.035 1.443.552 2.886 1.069 4.329 1.62.175.07.175.07.246-.103 1.196-3.655 2.357-7.276 3.554-10.932.175-.345.316-.69.387-1.035z" fill="#6091F8"/><path d="M11.5 21.5s.314-.732.5-1c.977-1.34 1.465-1.982 2.442-3.321.046-.09.093-.179.186-.179.79.268 1.581.58 2.372.893-.419.312-.837.625-1.256.893-1.488 1.026-1.756 1.143-3.244 2.214 0 0-.998.496-1 .5z" fill="#477AE6"/><path d="M25 9c-.075.314-.224.628-.336.942a1076.89 1076.89 0 01-3.766 9.924c-.074.158-.074.158-.26.095-1.53-.503-3.058-.974-4.587-1.476-.037-.032-.112-.032-.15-.032-.633-.22-1.267-.408-1.901-.628 0-.063.037-.094.112-.125.56-.44 1.081-.88 1.64-1.32a85.331 85.331 0 002.014-1.633c.858-.69 1.753-1.381 2.61-2.104l2.536-2.041c.224-.189.485-.377.708-.566.448-.314.895-.69 1.38-1.036-.037 0 0 0 0 0z" fill="#fff"/><path d="M11.546 17c-2.17-.724-4.34-1.415-6.546-2.139.072-.063.145-.063.217-.094 1.808-.535 3.58-1.038 5.389-1.573L22.54 9.702l2.278-.66c.036 0 .109-.094.181 0-.036.031-.108.031-.145.063-.795.503-1.591.944-2.387 1.447-1.916 1.132-3.87 2.296-5.786 3.428-.94.566-1.845 1.101-2.785 1.667-.796.44-1.555.881-2.35 1.353z" fill="#fff"/><path d="M11.524 17c.786-.491 1.123-.632 1.91-1.123.972-.59 1.908-1.147 2.882-1.736 1.983-1.179 4.005-2.39 5.989-3.57a96.1 96.1 0 002.47-1.506.301.301 0 01.15-.065c.038 0 .038 0 .075.033-.45.393-.898.753-1.348 1.146-.224.196-.486.393-.71.59-.862.72-1.685 1.407-2.546 2.128-.861.72-1.76 1.44-2.62 2.194a89.582 89.582 0 00-2.022 1.703c-.561.458-1.086.916-1.647 1.375-.037.032-.112.13-.112.13l-.562.636L13 19.5c-.15.197-1.5 2-1.5 2V20s.062-2.05.024-3z" fill="#D0DFFF"/></svg>