<svg width="30" height="30" fill="none" xmlns="http://www.w3.org/2000/svg"><rect width="30" height="30" rx="5" fill="#6091F8"/><path d="M12.236 10.92c.24-.128.475-.35.72-.362a25.02 25.02 0 012.744-.022c.513.027.664.245.675.775.017.675-.023 1.344-.023 2.019 0 .373-.005.758.067 1.115.095.452.441.564.72.201.585-.764 1.11-1.578 1.634-2.393.195-.3.307-.652.446-.987.117-.284.301-.424.62-.418.87.011 1.734-.006 2.604-.006.624 0 .836.262.524.792-.524.904-1.149 1.746-1.734 2.61-.168.246-.369.469-.541.714-.369.53-.346.764.106 1.222.557.558 1.126 1.11 1.673 1.678.184.196.34.43.474.659.279.48.15.808-.402.898-.496.078-1.004.05-1.506.067-.312.01-.619.01-.931.01-.469.006-.859-.183-1.188-.49-.323-.301-.608-.636-.915-.948a4.604 4.604 0 00-.569-.524c-.345-.252-.646-.19-.82.206a3.21 3.21 0 00-.228.97c-.056.603-.2.742-.814.776-2.27.122-4.033-.798-5.41-2.56-1.3-1.663-2.281-3.508-3.157-5.416-.19-.413-.061-.625.39-.636a55.745 55.745 0 012.37-.005c.33.005.48.245.62.507.457.87.92 1.735 1.41 2.582.146.257.352.48.564.692.396.396.714.296.837-.257a3.21 3.21 0 00.083-.652c.012-.463.017-.931 0-1.394-.027-.81-.211-1.038-.976-1.277-.039-.056-.05-.1-.067-.146z" fill="#fff"/></svg>