<svg width="30" height="30" fill="none" xmlns="http://www.w3.org/2000/svg"><rect width="30" height="30" rx="5" fill="#6091F8"/><path d="M7.412 22.73a7.53 7.53 0 01.247-.848c.282-1.094.6-2.152.882-3.247v-.07c-.423-.777-.74-1.553-.882-2.435-.07-.389-.106-.777-.141-1.165-.036-.424 0-.847.035-1.27.141-1.236.565-2.365 1.235-3.424.777-1.165 1.765-2.083 3-2.718.67-.353 1.412-.6 2.153-.741.388-.07.777-.106 1.13-.141 1.306-.036 2.54.176 3.705.74.777.354 1.448.848 2.083 1.413a8.638 8.638 0 011.694 2.223c.353.67.6 1.341.741 2.083.106.564.177 1.129.141 1.694a7.868 7.868 0 01-.74 3.106 7.12 7.12 0 01-1.448 2.082 8.042 8.042 0 01-2.153 1.623 7.46 7.46 0 01-2.259.777c-.388.07-.776.106-1.164.141-.424 0-.847 0-1.236-.07a7.68 7.68 0 01-2.47-.742c-.106-.035-.212-.106-.318-.176h-.07L9.14 22.2c-.564.212-1.13.353-1.73.53zm1.906-1.906h.07c.812-.212 1.588-.424 2.4-.636h.07l.742.424c.706.318 1.412.53 2.188.6.424.035.847.035 1.306 0a5.965 5.965 0 001.377-.282c1.27-.424 2.33-1.13 3.14-2.189a6.589 6.589 0 001.448-3.67 6.69 6.69 0 00-.07-1.447 6.297 6.297 0 00-.565-1.8c-.353-.742-.848-1.377-1.447-1.941a6.069 6.069 0 00-1.942-1.306c-.882-.389-1.835-.565-2.823-.565-.353 0-.67.035-1.024.106a5.675 5.675 0 00-1.835.635c-.635.353-1.235.777-1.73 1.306a6.41 6.41 0 00-1.2 1.694c-.388.812-.635 1.694-.67 2.577-.035.423 0 .847.07 1.305.071.565.248 1.13.46 1.66.246.352.458.705.705 1.058 0 .035.036.035 0 .07-.176.671-.388 1.377-.564 2.048-.036.106-.071.247-.106.353z" fill="#fff"/><path d="M17.576 18.459c-.352 0-.67-.07-.988-.177-.635-.211-1.27-.458-1.835-.847a8.864 8.864 0 01-1.13-.882c-.529-.494-.952-1.024-1.376-1.588-.212-.318-.423-.6-.565-.953a2.531 2.531 0 01-.247-.883c-.07-.635.071-1.235.495-1.729a1.05 1.05 0 01.282-.282.71.71 0 01.459-.141h.459a.32.32 0 01.246.105.58.58 0 01.142.247c.211.46.388.953.6 1.448 0 .035.035.07.035.105.035.106.035.177-.035.283a2.988 2.988 0 01-.494.67c-.036.036-.071.071-.071.106-.07.07-.07.177-.035.283l.211.317c.212.318.424.6.671.847.318.318.635.565 1.024.777.282.176.564.317.847.459 0 0 .035 0 .035.035.141.07.247.035.353-.07.212-.248.459-.53.635-.812.07-.106.177-.142.318-.106.141.035.282.106.423.176.424.177.812.388 1.236.6.035 0 .035.035.07.035.106.071.177.142.177.283 0 .247-.036.494-.106.706-.07.211-.212.388-.388.53-.283.21-.565.387-.918.458h-.53z" fill="#fff"/></svg>