<svg width="116" height="77" fill="none" xmlns="http://www.w3.org/2000/svg"><path opacity=".15" d="M30.791 76.39c-.749-.26-2.36-.39-4.834-.39H5.596c-1.693 0-3.044-.26-4.053-.781C.533 74.665.029 73.673.029 72.24c0-1.041.244-1.871.733-2.49 1.302.326 2.49.488 3.564.488 1.107 0 1.97-.114 2.588-.341.651-.228 1.204-.635 1.66-1.221 1.01-1.237 1.546-3.272 1.611-6.104V12.67c0-2.572-.716-4.183-2.148-4.834-.456-.228-1.074-.423-1.855-.586l-2.344-.488c-.749-.196-1.384-.423-1.904-.684C.892 5.558.37 4.678.37 3.441c0-1.204.244-2.1.733-2.685.748.26 2.36.39 4.834.39H25.81c1.692 0 3.043.277 4.052.83 1.042.521 1.563 1.498 1.563 2.93 0 1.074-.26 1.905-.781 2.49-1.237-.325-2.588-.488-4.053-.488-3.158 0-4.785 2.572-4.883 7.715v49.854c0 2.571.716 4.199 2.148 4.882.456.196 1.075.375 1.856.538.781.162 1.546.341 2.295.537.781.162 1.432.374 1.953.634 1.074.554 1.611 1.433 1.611 2.637 0 1.14-.26 2.035-.781 2.686zm41.895 0c-.75-.26-2.36-.39-4.834-.39H47.49c-1.693 0-3.043-.26-4.053-.781-1.009-.554-1.513-1.546-1.513-2.979 0-1.041.244-1.871.732-2.49 1.302.326 2.49.488 3.565.488 1.107 0 1.97-.114 2.588-.341.65-.228 1.204-.635 1.66-1.221 1.009-1.237 1.546-3.272 1.611-6.104V12.67c0-2.572-.716-4.183-2.148-4.834-.456-.228-1.075-.423-1.856-.586l-2.344-.488c-.748-.196-1.383-.423-1.904-.684-1.042-.52-1.562-1.4-1.562-2.637 0-1.204.244-2.1.732-2.685.749.26 2.36.39 4.834.39h19.873c1.693 0 3.044.277 4.053.83 1.041.521 1.562 1.498 1.562 2.93 0 1.074-.26 1.905-.78 2.49-1.238-.325-2.589-.488-4.054-.488-3.157 0-4.785 2.572-4.883 7.715v49.854c0 2.571.717 4.199 2.149 4.882.456.196 1.074.375 1.855.538.782.162 1.547.341 2.295.537.782.162 1.433.374 1.954.634 1.074.554 1.61 1.433 1.61 2.637 0 1.14-.26 2.035-.78 2.686zm41.894 0c-.749-.26-2.36-.39-4.834-.39H89.385c-1.693 0-3.044-.26-4.053-.781-1.01-.554-1.514-1.546-1.514-2.979 0-1.041.245-1.871.733-2.49 1.302.326 2.49.488 3.564.488 1.107 0 1.97-.114 2.588-.341.651-.228 1.205-.635 1.66-1.221 1.01-1.237 1.546-3.272 1.612-6.104V12.67c0-2.572-.716-4.183-2.149-4.834-.456-.228-1.074-.423-1.855-.586l-2.344-.488c-.749-.196-1.383-.423-1.904-.684-1.042-.52-1.563-1.4-1.563-2.637 0-1.204.244-2.1.733-2.685.748.26 2.36.39 4.834.39H109.6c1.692 0 3.043.277 4.052.83 1.042.521 1.563 1.498 1.563 2.93 0 1.074-.261 1.905-.781 2.49-1.237-.325-2.588-.488-4.053-.488-3.158 0-4.785 2.572-4.883 7.715v49.854c0 2.571.716 4.199 2.148 4.882.456.196 1.075.375 1.856.538.781.162 1.546.341 2.295.537.781.162 1.432.374 1.953.634 1.074.554 1.611 1.433 1.611 2.637 0 1.14-.26 2.035-.781 2.686z" fill="#C185AD"/></svg>