<svg width="114" height="77" fill="none" xmlns="http://www.w3.org/2000/svg"><path opacity=".15" d="M30.791 76.39c-.749-.26-2.36-.39-4.834-.39H5.596c-1.693 0-3.044-.26-4.053-.781C.533 74.665.029 73.673.029 72.24c0-1.041.244-1.871.733-2.49 1.302.326 2.49.488 3.564.488 1.107 0 1.97-.114 2.588-.341.651-.228 1.204-.635 1.66-1.221 1.01-1.237 1.546-3.272 1.611-6.104V12.67c0-2.572-.716-4.183-2.148-4.834-.456-.228-1.074-.423-1.855-.586l-2.344-.488c-.749-.196-1.384-.423-1.904-.684C.892 5.558.37 4.678.37 3.441c0-1.204.244-2.1.733-2.685.748.26 2.36.39 4.834.39H25.81c1.692 0 3.043.277 4.052.83 1.042.521 1.563 1.498 1.563 2.93 0 1.074-.26 1.905-.781 2.49-1.237-.325-2.588-.488-4.053-.488-3.158 0-4.785 2.572-4.883 7.715v49.854c0 2.571.716 4.199 2.148 4.882.456.196 1.075.375 1.856.538.781.162 1.546.341 2.295.537.781.162 1.432.374 1.953.634 1.074.554 1.611 1.433 1.611 2.637 0 1.14-.26 2.035-.781 2.686zm81.543-68.994c-.684-.325-1.628-.488-2.832-.488s-2.116.26-2.734.781c-.586.489-1.14 1.189-1.661 2.1-.52.912-1.025 2.002-1.513 3.271L83.428 67.797c-2.181 6.087-5.81 9.13-10.889 9.13-1.595 0-2.572-.455-2.93-1.367L45.537 14.282a26.21 26.21 0 01-.732-2.1 22.762 22.762 0 00-.782-2.245c-.716-1.66-1.709-2.686-2.978-3.077a33.363 33.363 0 00-2.002-.634c-.553-.196-1.01-.407-1.367-.635-.749-.488-1.123-1.107-1.123-1.856 0-1.171.26-2.164.781-2.978.749.26 2.034.39 3.857.39h20.215c2.181 0 3.662.147 4.444.44 1.497.586 2.246 1.693 2.246 3.32 0 1.107-.244 1.937-.733 2.49-.716-.325-2.132-.488-4.248-.488-3.84 0-5.762 1.595-5.762 4.785 0 .391.114.96.342 1.71l.586 1.708c.163.423.31.798.44 1.123L76.25 64.477 94.365 12.67c.196-.716.293-1.351.293-1.904 0-.586-.13-1.075-.39-1.465a3.579 3.579 0 00-1.026-1.074c-.456-.326-1.27-.603-2.441-.83a116.78 116.78 0 01-2.93-.684c-.749-.195-1.383-.44-1.904-.733-1.042-.585-1.595-1.562-1.66-2.93 0-.91.162-1.676.488-2.294.749.26 2.36.39 4.834.39h16.943c4.362 0 6.543 1.254 6.543 3.76 0 1.074-.26 1.905-.781 2.49z" fill="#D6829D"/></svg>