<svg width="48" height="50" fill="none" xmlns="http://www.w3.org/2000/svg"><g filter="url(#filter0_d)"><path d="M5 38V14h38v24c0 2.2-1.8 4-4 4H9c-2.2 0-4-1.8-4-4z" fill="#fff"/><path d="M43 10v6H5v-6c0-2.2 1.8-4 4-4h30c2.2 0 4 1.8 4 4z" fill="#6091F8"/><path d="M33 13a3 3 0 100-6 3 3 0 000 6zm-18 0a3 3 0 100-6 3 3 0 000 6z" fill="#4F7DDD"/><path d="M33 3c-1.1 0-2 .9-2 2v5c0 1.1.9 2 2 2s2-.9 2-2V5c0-1.1-.9-2-2-2zM15 3c-1.1 0-2 .9-2 2v5c0 1.1.9 2 2 2s2-.9 2-2V5c0-1.1-.9-2-2-2z" fill="#162950"/><path d="M13 20h4v4h-4v-4zm6 0h4v4h-4v-4zm6 0h4v4h-4v-4zm6 0h4v4h-4v-4zm-18 6h4v4h-4v-4zm6 0h4v4h-4v-4zm6 0h4v4h-4v-4zm6 0h4v4h-4v-4zm-18 6h4v4h-4v-4zm6 0h4v4h-4v-4zm6 0h4v4h-4v-4zm6 0h4v4h-4v-4z" fill="#DBE7FF"/></g><defs><filter id="filter0_d" x="-4" y="0" width="56" height="56" filterUnits="userSpaceOnUse" color-interpolation-filters="sRGB"><feFlood flood-opacity="0" result="BackgroundImageFix"/><feColorMatrix in="SourceAlpha" values="0 0 0 0 0 0 0 0 0 0 0 0 0 0 0 0 0 0 127 0"/><feOffset dy="4"/><feGaussianBlur stdDeviation="2"/><feColorMatrix values="0 0 0 0 0.376471 0 0 0 0 0.568628 0 0 0 0 0.972549 0 0 0 0.2 0"/><feBlend in2="BackgroundImageFix" result="effect1_dropShadow"/><feBlend in="SourceGraphic" in2="effect1_dropShadow" result="shape"/></filter></defs></svg>