<svg width="11" height="11" viewBox="0 0 11 11" fill="none" xmlns="http://www.w3.org/2000/svg">
<rect width="11" height="11" fill="url(#paint0_linear)"/>
<path d="M4.65057 6.30671C5.28842 6.95377 6.06019 7.45333 6.91169 7.77032L8.06363 6.85365C8.09778 6.83013 8.13827 6.81754 8.17974 6.81754C8.22121 6.81754 8.2617 6.83013 8.29585 6.85365L10.4347 8.23171C10.5159 8.28053 10.5847 8.34756 10.6355 8.42751C10.6864 8.50746 10.7179 8.59813 10.7277 8.69237C10.7375 8.78661 10.7252 8.88184 10.6919 8.97052C10.6585 9.05921 10.605 9.13892 10.5356 9.20338L9.53335 10.1934C9.38982 10.3352 9.21342 10.4393 9.01988 10.4963C8.82634 10.5534 8.62169 10.5616 8.42419 10.5203C6.45403 10.1134 4.63809 9.16045 3.18391 7.77032C1.762 6.36637 0.778047 4.57997 0.351408 2.62782C0.309261 2.43338 0.318058 2.23134 0.376945 2.0413C0.435832 1.85125 0.542812 1.67964 0.687519 1.5431L1.72641 0.540876C1.7907 0.474811 1.8691 0.424146 1.95574 0.392674C2.04239 0.361203 2.13503 0.349741 2.22673 0.359146C2.31843 0.368552 2.40681 0.39858 2.48527 0.446985C2.56372 0.495389 2.6302 0.560914 2.67974 0.638653L4.10363 2.75004C4.12819 2.7832 4.14145 2.82337 4.14145 2.86463C4.14145 2.90589 4.12819 2.94605 4.10363 2.97921L3.16557 4.10671C3.49117 4.94116 3.99844 5.69267 4.65057 6.30671Z" fill="url(#paint1_linear)"/>
<defs>
<linearGradient id="paint0_linear" x1="5.5" y1="0" x2="5.5" y2="11" gradientUnits="userSpaceOnUse">
<stop stop-color="white"/>
<stop offset="1" stop-color="white" stop-opacity="0"/>
</linearGradient>
<linearGradient id="paint1_linear" x1="3.27621" y1="-0.359886" x2="11.0895" y2="3.87819" gradientUnits="userSpaceOnUse">
<stop stop-color="#6091F8"/>
<stop offset="1" stop-color="#FF7C7C"/>
</linearGradient>
</defs>
</svg>
