<svg width="111" height="208" fill="none" xmlns="http://www.w3.org/2000/svg"><g opacity=".6" clip-path="url(#clip0)" fill="#DFE9FE"><path d="M4.008 191.003L1.134 175.23c-.064-.348.01-.549.252-.697a.598.598 0 01.92.393c.017.077.028.152.042.23l5.574 30.591c.062.338.03.314.368.252l3.337-.608c.289-.053.289-.053.234-.352l-1.717-9.424c-.094-.517.078-.77.59-.863l2.844-.518c.49-.09.755.094.845.584l1.726 9.474c.048.263.048.263.307.216l1.708-.312c.263-.047.263-.047.215-.307l-1.852-10.166-.746-4.097c-.089-.484.089-.744.572-.832l2.86-.522c.52-.094.78.087.875.606l1.496 8.207 1.1 6.036c.043.241.043.241.277.198l1.643-.299c.227-.042.227-.042.185-.272l-2.077-11.397-.036-.198c-.074-.423.102-.69.525-.784.267-.059.534-.101.804-.15l2.152-.392c.12-.022.243-.031.367-.013.24.033.39.177.462.402.03.095.043.184.06.271l2.085 11.446c.047.26.047.26.31.212l1.61-.294c.257-.046.257-.046.208-.313l-3.11-17.072-.046-.247c-.066-.381.109-.638.491-.711.938-.174 1.873-.341 2.811-.512.098-.018.198-.039.296-.054a.574.574 0 01.671.462c.02.077.031.152.045.23l3.102 17.024.028.149c.04.221.044.224.258.185l2.168-.395c.153-.028.3-.028.436.055.244.143.36.391.313.665-.046.249-.23.417-.522.47l-7.476 1.363-23.004 4.192c-.195.035-.386.056-.562-.066a.613.613 0 01-.252-.367l-.039-.214-2.86-15.692zm26.94 2.07l1.51 8.287c.041.228.042.231.269.19l1.445-.264c.224-.041.224-.041.181-.271l-.725-3.98-2.282-12.527c-.047-.257-.047-.257-.3-.211l-1.396.254c-.247.045-.247.045-.203.289l1.5 8.233zm-10.704 3.524l-.084-.461c-.384-2.109-.77-4.22-1.15-6.329-.027-.15-.062-.231-.244-.194a47.67 47.67 0 01-1.476.269c-.156.028-.192.092-.165.241.83 4.535 1.657 9.073 2.48 13.609.03.163.1.194.248.163.47-.092.94-.174 1.412-.26.253-.046.253-.046.206-.3l-1.227-6.738zm4.755.533c.33 1.81.663 3.616.986 5.427.03.162.079.213.25.179.495-.101.995-.192 1.494-.272.15-.024.189-.085.162-.235-.664-3.625-1.326-7.254-1.983-10.88-.03-.162-.096-.194-.248-.163-.48.091-.964.173-1.445.26-.243.044-.243.044-.198.291l.982 5.393zm-10.834 3.029c-.268-1.469-.539-2.937-.8-4.406-.03-.163-.083-.217-.25-.18-.495.101-.995.192-1.494.273-.155.028-.191.088-.164.238.54 2.946 1.077 5.892 1.611 8.843.03.166.1.193.248.163.486-.095.973-.181 1.46-.27.227-.041.227-.041.185-.272-.263-1.462-.53-2.927-.796-4.389z"/><path d="M27.088 164.072c1.95-.292 3.994.048 5.897 1.161a9.16 9.16 0 012.705 2.424 8.4 8.4 0 011.355 2.721c.365 1.249.407 2.513.183 3.786a8.564 8.564 0 01-1.501 3.54 8.99 8.99 0 01-1.168 1.323c-.092.084-.11.151-.024.253.378.455.75.911 1.119 1.374.07.088.125.061.192.005.362-.294.729-.586 1.094-.88.298-.243.61-.222.863.081.291.346.568.702.85 1.053.984 1.224 1.97 2.444 2.95 3.675.344.438.727.844 1.022 1.321a2.62 2.62 0 01-.582 3.433c-.455.371-.956.661-1.55.735-1.02.129-1.902-.153-2.567-.965-1.064-1.31-2.113-2.633-3.167-3.948-.457-.571-.916-1.139-1.371-1.707a1.755 1.755 0 01-.151-.221c-.16-.29-.116-.563.143-.778.364-.301.733-.597 1.106-.886.118-.092.121-.147.027-.26-.369-.44-.725-.889-1.082-1.337-.078-.093-.134-.107-.235-.038a8.513 8.513 0 01-2.496 1.177 8.347 8.347 0 01-4.046.139 8.369 8.369 0 01-1.948-.642c-.111-.057-.16-.031-.218.077a37.93 37.93 0 01-.553 1.027c-.056.101-.04.165.041.248 1.016.99.935 2.663-.048 3.617a2.574 2.574 0 01-4.045-.589c-.223-.395-.338-.824-.294-1.282.011-.123-.022-.174-.146-.212-.739-.224-1.479-.459-2.213-.694-.103-.032-.16-.018-.22.074-.515.748-1.238 1.108-2.14 1.128a2.014 2.014 0 01-.431-.049c-.105-.021-.163.006-.212.106-.32.635-.645 1.268-.968 1.905-.232.455-.457.915-.696 1.369-.057.111-.04.168.05.252a2.536 2.536 0 01-.347 3.954c-1.126.742-2.557.543-3.417-.495a2.563 2.563 0 01.354-3.633c.608-.49 1.306-.674 2.077-.529.135.025.196-.009.258-.131a497.63 497.63 0 011.652-3.262c.047-.093.034-.147-.039-.215a2.545 2.545 0 01.355-3.998c1.424-.928 3.35-.238 3.857 1.381.081.261.131.534.09.81-.015.117.025.17.136.207.735.225 1.468.454 2.198.687.124.041.197.017.281-.092.648-.846 1.497-1.209 2.56-1.04.264.042.26.043.385-.191.16-.301.317-.602.484-.897.069-.12.06-.192-.06-.275-1.161-.795-2.064-1.829-2.734-3.06a8.393 8.393 0 01-.987-3.187 8.621 8.621 0 01.653-4.314 8.524 8.524 0 013.215-3.856c1.064-.694 2.174-1.134 3.505-1.38zm1.927 8.95c-.018-.003-.031-.004-.046-.008-.338.592-.68 1.184-1.017 1.78l-1.39 2.452c-.393.699-.79 1.395-1.186 2.092-.056.097-.067.163.063.217.449.18.907.338 1.381.439a8.039 8.039 0 004.518-.312c2.347-.851 3.873-2.489 4.6-4.864.487-1.582.398-3.157-.198-4.7-.405-1.044-1.041-1.938-1.843-2.715a7.522 7.522 0 00-3.71-1.976c-1.575-.337-3.11-.198-4.593.438a7.506 7.506 0 00-3.33 2.742 7.124 7.124 0 00-1.184 3.038c-.158 1.083-.107 2.155.206 3.209a7.854 7.854 0 001.531 2.829c.386.46.83.852 1.316 1.203.074.054.139.096.201-.019.309-.553.624-1.104.936-1.655.402-.707.8-1.414 1.196-2.124l1.307-2.309c.017-.034.05-.073.017-.108-.028-.025-.064-.001-.095.011-.421.174-.843.345-1.265.516-.305.126-.607.255-.915.368a.647.647 0 01-.755-.238.65.65 0 01.085-.788c.126-.137.306-.18.468-.25l3.716-1.583a.372.372 0 01.18-.026.755.755 0 01.687.627l.428 2.13c.012.062.032.119.046.176.112.524.234 1.045.326 1.569a.622.622 0 01-.488.727c-.309.053-.656-.196-.723-.53-.15-.724-.296-1.453-.438-2.179-.014-.058-.022-.12-.032-.179zm11.393 15.849c1.283-.227 1.804-1.564 1.093-2.485-.312-.407-.639-.8-.957-1.202-1.047-1.31-2.093-2.616-3.137-3.926-.09-.115-.153-.124-.267-.032-.654.518-1.315 1.028-1.973 1.541-.383.291-.384.288-.092.654l.013.015c1.285 1.605 2.566 3.208 3.851 4.81.413.519.966.68 1.469.625zm-25.755-8.801a1.316 1.316 0 00-1.072 1.555c.132.724.82 1.203 1.545 1.075.763-.136 1.22-.794 1.078-1.556a1.316 1.316 0 00-1.55-1.074zm-2.518 9.112c-.077-.66-.755-1.235-1.54-1.085-.817.152-1.203.816-1.077 1.562.125.739.799 1.181 1.542 1.062.76-.122 1.24-.857 1.075-1.539zm9.82-6.77c-.7.117-1.208.787-1.082 1.553.116.711.847 1.205 1.561 1.075.747-.136 1.196-.799 1.059-1.552-.139-.761-.788-1.213-1.538-1.076z"/></g><g opacity=".6" clip-path="url(#clip1)" fill="#DFE9FE"><path d="M61.113 52.86l-24.784-4.27c-.89-.153-1.254-.666-1.097-1.574 1.8-10.449 3.6-20.893 5.405-31.34.419-2.431.827-4.86 1.255-7.288.282-1.609 1.498-2.75 3.022-2.858.274-.017.553-.009.826.038 7.013 1.204 14.02 2.416 21.031 3.624l21.439 3.694c1.061.178 2.123.36 3.184.543 1.834.326 3.027 1.966 2.732 3.825-.342 2.127-.722 4.248-1.088 6.372L89.762 42.64l-2.32 13.466c-.134.778-.68 1.169-1.449 1.036l-20.525-3.536a1276.72 1276.72 0 01-4.355-.746zm-23.43-6.411l47.646 8.21 4.315-25.049-47.646-8.21-4.316 25.049zm52.386-19.16l.085-.495c.556-3.223 1.11-6.442 1.66-9.666.158-.913-.107-1.29-1.025-1.448l-22.542-3.884L45.48 7.873c-.76-.13-1.191.176-1.321.93-.562 3.262-1.125 6.528-1.692 9.79l-.082.475c15.907 2.746 31.767 5.479 47.684 8.221z"/><path d="M69.769 29.703L68.4 37.639 43.455 33.34l1.367-7.936 24.947 4.299zm-2.664 1.89l-20.4-3.515-.582 3.373 20.401 3.515.581-3.373zm.899 8.382c-.458 2.657-.91 5.285-1.369 7.941L41.69 43.618l1.368-7.941 24.947 4.298zM44.936 38.34l-.582 3.377 20.387 3.513.582-3.377-20.387-3.513zM70.054 48.5l3.137-18.208 12.462 2.147-3.138 18.207-12.46-2.147zm2.67-1.895l7.915 1.363 2.35-13.638-7.916-1.364-2.35 13.639zM61.008 12.904l27.198 4.686-1.175 6.822-27.198-4.686 1.175-6.822zm24.545 6.598l-22.67-3.906-.385 2.23L85.17 21.73l.385-2.229zm-30.438-6.447a2.307 2.307 0 011.88 2.664c-.211 1.25-1.413 2.11-2.652 1.902-1.258-.207-2.112-1.422-1.894-2.686a2.31 2.31 0 012.666-1.88zm-7.617 3.387a2.3 2.3 0 01-1.857-2.675 2.3 2.3 0 012.69-1.876c1.242.224 2.068 1.43 1.846 2.688a2.317 2.317 0 01-2.678 1.863z"/></g><g opacity=".6" clip-path="url(#clip2)" fill="#DFE9FE"><path d="M88.736 157.14c-.465-.303-.931-.6-1.395-.908a5879.92 5879.92 0 01-5.99-3.997 3.173 3.173 0 01-.152-.11c-.21-.159-.298-.358-.228-.629.255-.974.483-1.955.745-2.924.606-2.236 1.228-4.465 1.837-6.7.077-.287.244-.445.524-.487.287-.044.526.086.687.344.104.167.12.319.068.514-.789 2.918-1.57 5.838-2.358 8.756-.053.197-.03.294.147.411 1.905 1.254 3.804 2.519 5.704 3.78.056.037.114.073.176.111a.441.441 0 00.068-.474 9.859 9.859 0 00-.301-.637c-.836-1.659-1.158-3.407-.847-5.254.41-2.454 1.669-4.364 3.726-5.736.171-.115.34-.235.521-.329.201-.103.295-.253.345-.472.086-.388.205-.767.303-1.152a.37.37 0 01.183-.25c2.885-1.709 5.765-3.422 8.648-5.135.05-.029.096-.059.179-.112l-20.803-5.581c.046.082.073.138.103.194 1.468 2.617 2.936 5.231 4.401 7.848.176.313.33.638.502.953.124.23.043.431-.096.606-.15.183-.34.31-.595.26-.1-.021-.205-.037-.296-.079a.474.474 0 01-.202-.157 2248.83 2248.83 0 01-3.54-6.206c-.78-1.379-1.542-2.764-2.319-4.142-.107-.191-.155-.379-.098-.591.254-.925.494-1.852.77-2.772.123-.411.336-.517.745-.416 1.449.361 2.899.72 4.339 1.103a6546.367 6546.367 0 0115.07 4.037c1.381.37 2.756.763 4.135 1.151.272.076.537.177.802.279.309.119.449.464.322.781-.141.358-.329.482-.701.401-.935-.209-1.874-.415-2.801-.664-6.88-1.833-13.755-3.674-20.633-5.516l-.192-.052-.358 1.336.203.054c7.776 2.086 15.55 4.172 23.327 6.255.331.089.391.355.457.612.067.259-.052.469-.282.607-1.153.69-2.303 1.385-3.457 2.069a10613.41 10613.41 0 01-6.369 3.772.528.528 0 00-.188.167c.144-.022.286-.042.427-.067.854-.155 1.717-.259 2.574-.137.63.087 1.262.247 1.86.462 3.075 1.088 4.777 3.378 5.434 6.524.247 1.184.104 2.363-.186 3.542-.896 3.665-4.09 5.691-6.582 6.158-1.458.273-2.866.116-4.26-.351-1.093-.366-2.032-.971-2.877-1.739-.067-.06-.134-.12-.241-.212-.087.502-.305.869-.82.945l-.165-.044zm.23-8.699c-1.019 3.739 1.134 7.576 4.818 8.585 3.678 1.008 7.533-1.226 8.552-4.956 1.015-3.718-1.165-7.598-4.816-8.605-3.367-.924-7.466.873-8.555 4.976zm6.647-22.256l-.389 1.448c-.079.296-.35.347-.575.42-.196.062-.396-.013-.529-.187a2.492 2.492 0 01-.221-.365.277.277 0 01-.008-.18c.263-.993.53-1.988.798-2.979a.318.318 0 01.126-.166c.217-.132.425-.297.71-.199.3.102.54.522.457.83l-.37 1.378zm-4.03-1.087c-.13.487-.265.977-.39 1.466a.332.332 0 01-.178.23c-.192.1-.365.235-.605.182-.349-.078-.612-.499-.52-.843.252-.938.507-1.876.752-2.813.081-.314.35-.362.583-.436.212-.07.413.026.55.217.06.086.125.179.165.277.03.077.05.177.033.254-.125.489-.26.978-.39 1.466zm-4.233-.32c-.055.205-.124.407-.162.615a.463.463 0 01-.29.369c-.071.032-.14.077-.21.107a.567.567 0 01-.642-.179c-.179-.235-.28-.468-.16-.786.15-.388.231-.805.359-1.202.153-.47.312-.497.725-.555.257-.037.6.351.59.638-.002.051-.002.106-.015.154-.071.277-.148.552-.223.831l.028.008zm10.748 2.922c.102-.311.198-.624.304-.93.11-.321.598-.483.882-.308.289.181.438.417.341.775-.136.519-.265 1.043-.396 1.567-.006.023-.01.046-.023.063a.698.698 0 01-1.138-.03c-.143-.214-.188-.41-.09-.653.061-.152.089-.32.132-.481l-.012-.003z"/><path d="M95.247 154.54c-.084.249-.158.492-.248.728a.69.69 0 01-.713.419c-.299-.032-.538-.241-.573-.547-.021-.196.01-.399.032-.595.015-.123.062-.244.1-.387-.205-.068-.402-.135-.6-.195-.954-.298-1.515-.986-1.565-1.933-.015-.279.013-.552.15-.803a.668.668 0 01.814-.322.721.721 0 01.446.784c-.084.449.07.777.5.899.84.237 1.685.458 2.537.641.508.109.931-.233 1.06-.767.123-.517-.12-1.014-.608-1.175-.63-.208-1.268-.388-1.904-.586-.238-.073-.48-.138-.704-.247-1.072-.523-1.594-1.98-1.115-3.09.51-1.186 1.706-1.775 2.943-1.446l.226.061c.077-.233.138-.449.223-.656.154-.373.405-.541.72-.523.311.017.729.419.632.792-.062.243-.102.492-.152.744.317.11.63.2.93.319.84.335 1.355 1.297 1.19 2.202-.048.271-.099.526-.377.672-.397.211-.868.011-.96-.43a2.207 2.207 0 01-.032-.477c-.002-.417-.123-.598-.519-.716-.32-.098-.642-.184-.967-.275-.46-.123-.926-.233-1.38-.373-.381-.117-.69.021-.947.269-.464.449-.436 1.137.057 1.544.134.111.318.173.49.225.656.2 1.318.378 1.976.575.953.286 1.69 1.151 1.698 2.157.015 1.604-1.087 2.741-2.667 2.613-.225-.018-.448-.066-.693-.101z"/></g><circle opacity=".6" cx="24.5" cy="4.5" r="4.5" fill="#DFE9FE"/><circle opacity=".6" cx="32.5" cy="118.5" r="4.5" fill="#DFE9FE"/><circle opacity=".6" cx="50.5" cy="88.5" r="2.5" fill="#DFE9FE"/><defs><clipPath id="clip0"><path fill="#fff" transform="rotate(-10.327 935.142 84.504)" d="M0 0h39.089v39.089H0z"/></clipPath><clipPath id="clip1"><path fill="#fff" transform="rotate(9.776 -7.997 250.811)" d="M0 0h53v44H0z"/></clipPath><clipPath id="clip2"><path fill="#fff" transform="rotate(15.016 -414.887 366.387)" d="M0 0h30.533v33.805H0z"/></clipPath></defs></svg>