<svg width="162" height="240" fill="none" xmlns="http://www.w3.org/2000/svg"><circle opacity=".6" cx="116.5" cy="160.5" r="4.5" fill="#DFE9FE"/><g opacity=".6" clip-path="url(#clip0)" fill="#DFE9FE"><path d="M84.872 13.069c10.304 3.633 20.593 7.289 30.912 10.88 2.837.987 4.863 3.739 4.266 7.115a5.78 5.78 0 01-.252.906c-4.912 13.93-9.82 27.867-14.738 41.794-1.144 3.245-4.646 4.927-7.868 3.791a112260.91 112260.91 0 01-62.353-21.988c-3.264-1.15-4.924-4.633-3.768-7.914 4.902-13.92 9.81-27.836 14.718-41.754C46.96 2.576 50.4.913 53.714 2.081c10.39 3.658 20.77 7.325 31.158 10.988zm-.81 2.259C73.776 11.701 63.49 8.074 53.195 4.45c-.498-.175-1.043-.313-1.568-.336-1.722-.053-3.034 1.008-3.715 2.94-.264.746-.264.746.487 1.011l61.134 21.558c.264.093.532.174.777.301.529.261.77.86.595 1.415a1.159 1.159 0 01-1.301.8c-.287-.047-.567-.153-.849-.252L64.922 16.43c-.702-.248-.702-.248-.953.462L49.681 57.41c-.04.115-.074.231-.12.344-.12.262-.053.435.227.52.165.051.33.116.493.173l47.175 16.636c.264.093.52.19.79.265a3.532 3.532 0 002.494-.163c1.069-.469 1.74-1.281 2.121-2.379 4.415-12.54 8.835-25.073 13.256-37.612.024-.067.041-.135.07-.199.135-.304.056-.481-.271-.59a39.068 39.068 0 01-1.818-.64c-.732-.28-1.057-.908-.817-1.568.237-.654.883-.934 1.629-.678.608.208 1.216.416 1.818.641.292.11.462.048.551-.26.139-.45.332-.884.419-1.34.363-1.93-.672-3.608-2.628-4.297-10.334-3.645-20.67-7.283-31.008-10.935zM54.555 36.395l7.177-20.352c.23-.65.23-.65-.425-.881-4.62-1.63-9.238-3.251-13.852-4.899-.474-.167-.655-.075-.823.4-4.414 12.556-8.84 25.107-13.266 37.658a5.087 5.087 0 00-.233.851c-.27 1.86.706 3.471 2.535 4.122 3.596 1.282 7.205 2.548 10.806 3.818.69.243.69.243.938-.461l7.143-20.256z"/><path d="M96.957 52.56c.217-.174.37-.283.501-.406 2.396-2.126 4.786-4.254 7.179-6.389.356-.32.738-.524 1.229-.405.635.15 1.017.75.881 1.386-.04.19-.11.368-.173.548l-4.641 13.16c-.053.15-.098.296-.163.443-.267.623-.882.914-1.484.708-.578-.197-.896-.79-.753-1.423.043-.201.12-.398.19-.596l2.901-8.23c.06-.168.101-.343.155-.513l-.12-.083c-.151.123-.308.243-.447.37-1.68 1.492-3.358 2.978-5.028 4.48-.424.38-.858.673-1.448.472-.624-.22-.772-.74-.87-1.322-.362-2.246-.75-4.495-1.124-6.745a.83.83 0 00-.207-.465c-.069.158-.152.318-.21.48-.991 2.812-1.98 5.617-2.978 8.426a2.52 2.52 0 01-.385.73c-.328.412-.903.514-1.37.288a1.15 1.15 0 01-.654-1.245c.031-.185.103-.37.167-.55 1.57-4.455 3.133-8.906 4.722-13.354.115-.325.323-.685.594-.88.698-.526 1.631-.034 1.797.911.327 1.868.63 3.742.943 5.612.233 1.388.463 2.782.695 4.17.01.106.045.199.101.422zM83.57 50.038c.069.167.136.34.211.508.564 1.194 1.143 2.386 1.7 3.578.322.695.14 1.348-.444 1.683-.566.322-1.31.134-1.606-.478a406.789 406.789 0 01-3.027-6.36c-.225-.472-.116-.934.239-1.31.357-.381.805-.447 1.296-.287 1.183.376 2.3.209 3.319-.515 1.178-.837 1.713-2.008 1.55-3.44-.173-1.462-.96-2.518-2.348-3.061-1.002-.394-2.033-.704-3.036-1.091-.444-.177-.63-.087-.786.372-1.366 3.931-2.756 7.854-4.14 11.779-.064.18-.122.363-.197.54-.258.578-.821.854-1.412.693a1.17 1.17 0 01-.847-1.273c.025-.222.1-.439.177-.655l4.692-13.304c.352-.999.896-1.26 1.898-.907 1.46.508 2.923 1.01 4.373 1.549 2.378.872 3.975 3.06 4.041 5.492.07 2.577-1.322 4.84-3.672 5.88-.613.264-1.288.398-1.982.607zM71.847 33.357c1.484.537 3.024 1.872 4.085 3.762.074.134.152.277.202.423.248.636-.018 1.334-.59 1.599-.565.26-1.232.046-1.549-.567-.482-.928-1.106-1.723-1.957-2.334-2.418-1.753-5.645-1.538-7.849.521-2.168 2.017-2.572 5.286-.985 7.828 1.56 2.5 4.665 3.514 7.44 2.435.116-.04.224-.097.34-.138.728-.305 1.394-.09 1.678.538.285.629-.024 1.332-.74 1.661-1.415.645-2.894.895-4.428.713-5.443-.64-8.835-5.85-7.241-11.115 1.392-4.599 6.45-7.134 11.594-5.326zM56.575 8.28a1.188 1.188 0 01-1.518.745c-.618-.218-.958-.92-.729-1.53a1.17 1.17 0 011.484-.708c.653.216.982.854.763 1.494zm2.75-.261c.634.23.946.895.72 1.52a1.204 1.204 0 01-1.541.694c-.602-.225-.894-.87-.681-1.492.229-.65.854-.95 1.502-.722zm-6.227-.977c-.213.642-.877.976-1.502.756-.616-.204-.945-.895-.727-1.515a1.147 1.147 0 011.469-.72c.66.212.981.832.76 1.479zm.505 8.097c1.29.455 2.589.906 3.877 1.367.742.268 1.067.877.845 1.543-.227.665-.873.985-1.605.727a919.502 919.502 0 01-7.904-2.787c-.72-.254-1.048-.932-.815-1.573.236-.648.897-.936 1.625-.686 1.327.467 2.65.941 3.977 1.409zm-1.663 4.658c1.29.455 2.589.906 3.877 1.367.754.272 1.094.86.88 1.522-.22.68-.886 1-1.644.74-2.619-.917-5.237-1.834-7.856-2.77-.75-.265-1.082-.95-.83-1.606.247-.644.89-.898 1.642-.64 1.31.456 2.623.925 3.931 1.387zm-2.432 6.898c-1.345-.474-2.687-.934-4.025-1.426-.58-.211-.86-.642-.836-1.188.024-.527.3-.91.79-1.055.263-.076.593-.075.86.012 2.659.917 5.305 1.85 7.953 2.798.708.25 1.02.88.798 1.527-.223.652-.847.966-1.56.729-1.332-.45-2.654-.93-3.98-1.397zm-2.59 1.795c.738.26 1.472.512 2.208.779.722.268 1.043.909.797 1.567-.239.64-.866.926-1.577.682a293.835 293.835 0 01-4.464-1.574c-.718-.26-1.038-.921-.803-1.57.227-.623.882-.913 1.582-.68.76.255 1.509.525 2.257.796zm-2.465 6.895c-.738-.26-1.473-.513-2.209-.78-.694-.25-1.03-.884-.83-1.51.213-.663.876-.99 1.6-.749 1.505.517 3.013 1.042 4.513 1.592.7.253.995.892.76 1.54-.232.636-.877.936-1.576.696-.76-.254-1.508-.525-2.258-.79zm-3.37 4.027c-.18-.063-.363-.12-.54-.19-.654-.251-.97-.87-.763-1.494.203-.612.851-.959 1.506-.768.399.113.795.253 1.17.412.67.284.96.954.712 1.578-.248.61-.86.874-1.545.653-.183-.058-.36-.127-.54-.19z"/></g><g opacity=".6" clip-path="url(#clip1)" fill="#DFE9FE"><path d="M35.733 163.377c-6.613 1.732-13.226 3.465-19.844 5.194a2.834 2.834 0 01-.63.107c-.355.007-.657-.258-.775-.658-.105-.37-.2-.747-.297-1.12l-2.545-9.715c-.214-.818-.006-1.167.834-1.388l39.787-10.422c.856-.224 1.2-.023 1.422.825l2.767 10.564c.222.844.023 1.18-.85 1.408l-19.87 5.205zm-4.737-.507l8.61-2.255c-.153-.58-.32-1.139-.44-1.706-.068-.327-.203-.365-.51-.285-2.602.694-5.206 1.372-7.81 2.054-.059.016-.135.011-.167.048-.074.081-.18.199-.165.273.144.614.312 1.223.482 1.871zm-9.66-1.432l-.55-2.103c-1.113.291-2.2.572-3.287.869-.059.015-.131.166-.117.236.136.567.28 1.136.444 1.696.026.067.18.162.247.149 1.081-.271 2.158-.557 3.264-.847zm17.957-8.715l3.468-.909-.544-2.076c-1.11.29-2.196.571-3.28.867-.061.016-.148.162-.132.223.15.621.317 1.242.488 1.895zm-15.377 3.999c.044.013.069.027.088.022 1.068-.275 2.133-.542 3.196-.837.066-.017.143-.218.122-.311-.113-.512-.266-1.017-.383-1.528-.054-.236-.15-.301-.393-.229-.686.192-1.378.361-2.063.54l-1.102.289c.185.718.36 1.39.535 2.054zm7.14-.082c-1.113.292-2.186.577-3.266.852-.203.053-.184.171-.145.321.137.505.282 1.013.395 1.525.062.266.172.307.425.241.947-.26 1.903-.502 2.852-.755.097-.026.19-.07.288-.104-.188-.702-.36-1.362-.549-2.08zm10.25-2.681c-1.11.291-2.197.572-3.275.87-.062.017-.137.205-.115.289.113.512.273 1.011.382 1.524.06.292.194.311.446.24.935-.257 1.875-.495 2.816-.745.097-.026.19-.071.293-.106-.187-.697-.363-1.369-.547-2.072zm1.66-.439c.177.672.334 1.303.518 1.928.016.061.208.126.297.103.992-.248 1.975-.514 2.965-.765.191-.05.254-.128.199-.323a45.08 45.08 0 01-.419-1.596c-.053-.22-.163-.245-.357-.19-.526.15-1.058.281-1.587.42l-1.615.423zm-14.156 7.724l-3.464.908.544 2.076c1.11-.29 2.196-.571 3.28-.867.061-.016.14-.164.122-.229-.143-.627-.313-1.243-.482-1.888zm15.907-1.947l-.552-2.108c-1.102.289-2.18.567-3.251.864-.07.019-.151.216-.131.309.116.524.272 1.041.392 1.563.053.232.162.265.379.204.557-.158 1.12-.297 1.684-.445l1.479-.387zm-11.435-.988c1.102-.288 2.155-.569 3.212-.837.199-.052.237-.144.185-.328a43.177 43.177 0 01-.41-1.562c-.055-.227-.154-.271-.375-.209-.978.264-1.969.516-2.953.777-.066.018-.127.054-.198.085.176.688.353 1.364.54 2.074zm3.81-7.208L33.66 152l.54 2.061 3.433-.899-.54-2.061zm-5.131 1.323c-1.105.29-2.173.565-3.232.855-.078.021-.19.169-.174.226.15.634.318 1.262.487 1.907l3.464-.907-.545-2.081zm15.404-4.01l-3.453.904.545 2.081c1.11-.291 2.197-.572 3.28-.867.058-.016.137-.143.123-.197-.154-.636-.323-1.265-.495-1.921zm-23.716 14.15c-1.11.29-2.177.566-3.236.856-.07.018-.178.148-.168.203.152.642.328 1.281.497 1.929l3.453-.904-.546-2.084zm-1.163-3.679l.552 2.108c1.097-.288 2.159-.57 3.227-.842.191-.05.206-.152.16-.312-.14-.521-.285-1.041-.406-1.564-.058-.255-.18-.276-.405-.213-.593.167-1.19.316-1.79.473l-1.338.35zm-.245-1.663l-.546-2.084-3.452.904.342 1.306c.204.779.204.779.994.572l2.662-.698zm24.157 1.585l3.456-.905c-.166-.634-.327-1.219-.47-1.809-.054-.224-.169-.235-.359-.181-.788.215-1.579.418-2.373.626l-.794.208.54 2.061zm5.76-11.673c-1 .262-1.986.516-2.963.788-.062.016-.129.206-.11.292.122.533.278 1.063.405 1.596.047.196.138.242.328.189.516-.144 1.03-.274 1.548-.41l1.343-.352-.551-2.103zM15.944 166.83c1.012-.266 1.986-.517 2.955-.787.067-.017.143-.218.122-.315-.113-.511-.267-1.017-.385-1.531-.055-.244-.16-.291-.395-.225-.854.236-1.704.45-2.552.677-.097.025-.19.066-.293.101.187.702.361 1.366.548 2.08zm-1.951-7.451c1.008-.264 1.982-.515 2.95-.785.07-.019.143-.218.123-.311-.113-.512-.266-1.018-.384-1.532-.059-.239-.157-.296-.397-.228-.787.218-1.583.418-2.373.625l-.471.124.552 2.107zm40.657-2.684l-.552-2.108c-1 .262-1.974.513-2.944.784-.066.017-.14.196-.124.287.06.308.147.609.235.914.087.297.106.735.306.851.205.115.599-.083.907-.159.721-.185 1.44-.378 2.172-.569zm-4.939-2.69c.277-.072.551-.152.826-.212.18-.043.232-.13.183-.302a76.333 76.333 0 01-.427-1.632c-.044-.168-.123-.23-.3-.179-.552.152-1.1.296-1.655.433-.176.042-.23.126-.183.302.15.543.292 1.085.428 1.632.045.172.126.229.304.178.274-.08.552-.148.824-.22zm-35.278 6.99l.552 2.107c.362-.095.7-.167 1.024-.281.077-.024.175-.189.156-.262a24.592 24.592 0 00-.436-1.666c-.02-.073-.187-.172-.266-.156-.337.064-.668.163-1.03.258zm38.697-10.133c-.37.097-.726.182-1.076.29-.061.02-.145.145-.13.198.155.644.327 1.284.495 1.926l1.257-.33-.546-2.084zm-3.604-20.554l3.195 12.195c.211.806.001 1.164-.808 1.376l-20.19 5.289c-.809.212-1.176.001-1.384-.794l-6.4-24.428c-.209-.799.001-1.157.814-1.37l20.19-5.289c.82-.215 1.174-.012 1.384.79 1.064 4.078 2.132 8.154 3.2 12.231zm-3.816-7.774l-19.049 4.989 5.202 19.861 19.05-4.99-5.203-19.86zm-.905-3.484l-.408.107-18.228 4.775c-.093.024-.195.031-.27.079-.063.045-.135.15-.12.208.129.54.274 1.08.42 1.633l19.079-4.998-.473-1.804zM7.487 141.312l-3.195-12.199c-.218-.829-.02-1.172.816-1.391l15.332-4.016c.833-.218 1.182-.014 1.4.819l6.38 24.359c.224.852.02 1.197-.833 1.42l-15.297 4.007c-.84.22-1.192.021-1.407-.8l-3.196-12.199zm-1.39-12.101l6.107 23.311 14.241-3.731-.087-.334c-1.976-7.543-3.956-15.084-5.92-22.63-.08-.307-.188-.353-.487-.274-4.5 1.191-9.005 2.367-13.505 3.546-.112.029-.222.07-.349.112z"/><path d="M32.755 136.117c1.029.592 2.008 1.156 2.984 1.721.162.093.322.198.459.322.266.255.307.65.12.97a.817.817 0 01-.942.386 2.2 2.2 0 01-.419-.186c-1.194-.683-2.389-1.371-3.584-2.059-.638-.37-.764-.805-.396-1.431.712-1.207 1.432-2.409 2.148-3.614.044-.073.088-.142.138-.204.294-.373.724-.477 1.098-.271.402.218.56.645.334 1.085-.252.501-.555.978-.843 1.464-.356.597-.72 1.189-1.097 1.817zm11.857-3.102l-2.852-1.632a4.155 4.155 0 01-.482-.297c-.359-.275-.44-.726-.211-1.093.222-.358.644-.493 1.052-.317.249.107.478.252.713.388 1.062.608 2.125 1.219 3.184 1.832.628.365.744.794.38 1.406-.71 1.207-1.416 2.418-2.157 3.609-.143.23-.394.447-.644.558-.279.126-.583-.003-.798-.238-.211-.232-.28-.509-.168-.813.056-.151.14-.295.223-.436.572-.975 1.15-1.942 1.76-2.967zm-5.467-3.914c.005.528.016 1.206.022 1.881.017 2.047.029 4.095.041 6.142.003.726-.477 1.147-1.088.975-.39-.107-.597-.422-.604-.925-.015-1.707-.025-3.414-.036-5.122l-.025-2.668c-.005-.577.199-.909.62-1.028.474-.132.916.125 1.07.745zM17.81 144.863c-1.456.381-2.914.767-4.371 1.145-.502.131-.866-.003-1.07-.372a.795.795 0 01.333-1.109c.146-.075.302-.132.462-.174 2.797-.737 5.596-1.47 8.394-2.203l.172-.045c.586-.125 1.034.107 1.145.594.112.475-.166.876-.73 1.024-1.447.383-2.89.762-4.335 1.14zm-3.984-15.081c1.456-.381 2.915-.768 4.371-1.145.49-.129.888.022 1.074.383.213.416.065.885-.354 1.11a1.796 1.796 0 01-.362.144 3202.48 3202.48 0 01-8.602 2.253c-.51.134-.887.011-1.097-.332-.28-.467-.075-1.03.466-1.221.278-.097.57-.161.857-.237l3.647-.955zm2.204 8.348c-1.456.381-2.915.768-4.372 1.141-.67.176-1.195-.212-1.161-.828.022-.375.302-.674.784-.8 1.225-.325 2.456-.643 3.682-.965 1.639-.429 3.278-.871 4.923-1.277.266-.065.61-.053.848.061.554.273.529 1.068-.012 1.386a1.85 1.85 0 01-.461.174c-1.408.373-2.822.739-4.231 1.108zm-1.769 2.347c.744-.194 1.486-.409 2.236-.577.593-.135 1.084.294 1.03.866-.03.299-.163.568-.466.651-1.595.435-3.197.863-4.808 1.256-.395.095-.78-.235-.863-.611-.088-.399.127-.833.537-.953.772-.227 1.555-.415 2.337-.62l-.003-.012zm1.753 6.74c.744-.195 1.49-.394 2.235-.581.356-.089.662.015.882.302.213.272.254.602.052.881-.14.192-.375.377-.604.441-1.426.398-2.86.769-4.295 1.133-.542.138-1.015-.128-1.126-.583-.113-.462.178-.891.722-1.038.712-.19 1.421-.372 2.134-.555 0-.004 0-.004 0 0zM12.9 135.328c-.779.204-1.553.423-2.337.604-.393.091-.718-.119-.884-.482a.783.783 0 01.216-.922 1.17 1.17 0 01.436-.225c1.43-.383 2.861-.766 4.297-1.126.682-.174 1.217.264 1.134.885-.058.413-.335.625-.724.727l-2.133.558-.005-.019z"/></g><g opacity=".6" clip-path="url(#clip2)" fill="#DFE9FE"><path d="M155.907 202.355c-.208.932-.819 1.353-1.729 1.516-1.647.298-3.28.662-4.917 1.005-.576.119-1.105.068-1.553-.367-.809-.785-.513-2.207.578-2.463 1.967-.463 3.95-.847 5.927-1.235.665-.132 1.098.327 1.529.745l.165.799zm-38.941 17.987c2.272 3.375 4.493 6.677 6.721 9.983.461.691.93 1.375 1.391 2.066.63.941.573 1.879-.148 2.364-.807.539-1.636.297-2.289-.675-2.827-4.202-5.665-8.401-8.475-12.616-.275-.414-.532-.49-.984-.392-1.708.374-3.419.758-5.144 1.048-4.284.719-8.27-1.686-9.517-5.887-.6-2.008-1.134-4.076-1.01-6.228.208-3.54 2.874-6.801 6.301-7.567 3.527-.785 7.062-1.552 10.617-2.198 4.811-.875 9.048-2.961 12.774-6.059 2.364-1.963 4.551-4.143 6.814-6.224.186-.168.351-.362.551-.512.856-.648 2.012-.266 2.292.788.208.785.349 1.589.514 2.388.53 2.565 1.068 5.123 1.579 7.692.08.387.227.528.631.574 2.912.314 5.024 2.216 5.773 5.149.632 2.488-.384 5.388-2.674 6.844-.948.604-.929 1.144-.729 2.034.656 2.953 1.243 5.92 1.85 8.883.214 1.032-.211 1.834-1.102 1.94-.38.048-.878-.056-1.177-.284-4.614-3.486-9.893-4.558-15.506-4.459-2.959.053-5.839.638-8.721 1.243-.089.014-.174.052-.332.105zm-1.317-2.749c8.347-2.133 16.558-2.567 24.563 1.49l-5.662-27.403c-3.091 2.988-6.285 5.706-9.909 7.904-3.671 2.222-7.711 3.274-11.888 3.992l2.896 14.017zm-2.937.56l-2.87-13.892c-.102 0-.198-.016-.287.002-1.767.386-3.545.717-5.289 1.165-2.39.623-4.139 3.282-3.77 5.74a38.12 38.12 0 00.898 4.321c.631 2.332 3.217 4.048 5.596 3.743 1.179-.15 2.342-.406 3.512-.627.727-.135 1.453-.295 2.21-.452zm28.352-9.794c1.224-.729 1.784-2.366 1.37-3.9-.35-1.293-1.605-2.451-2.683-2.456l1.313 6.356zm15.394 1.011c.231 1.018-.666 1.917-1.775 1.738-1.592-.256-3.177-.554-4.763-.832-.378-.067-.762-.111-1.135-.205-.768-.188-1.268-.949-1.137-1.705.128-.746.865-1.322 1.645-1.199 2.006.325 4.008.678 6.012 1.04.62.12.992.555 1.153 1.163zm-2.981-14.456c.095.612-.061 1.172-.611 1.539-1.66 1.103-3.319 2.212-5.002 3.278-.784.499-1.69.262-2.11-.459-.411-.696-.185-1.565.569-2.062a430.543 430.543 0 014.857-3.182c.924-.594 2.068-.148 2.297.886z"/></g><circle opacity=".6" cx="4.5" cy="49.5" r="4.5" fill="#DFE9FE"/><circle opacity=".6" cx="134.5" cy="130.5" r="2.5" fill="#DFE9FE"/><defs><clipPath id="clip0"><path fill="#fff" transform="rotate(19.424 23.934 139.843)" d="M0 0h78.467v56.738H0z"/></clipPath><clipPath id="clip1"><path fill="#fff" transform="rotate(-14.679 498.93 48.479)" d="M0 0h43.459v42.252H0z"/></clipPath><clipPath id="clip2"><path fill="#fff" transform="rotate(-11.673 1004 -362.538)" d="M0 0h59.152v44.666H0z"/></clipPath></defs></svg>