<svg width="56" height="82" fill="none" xmlns="http://www.w3.org/2000/svg"><path d="M28 0C12.553 0 0 12.552 0 27.997c0 9.426 5.46 17.312 11.807 22.818 2.006 1.727 5.506 4.48 8.633 8.54C23.893 63.88 27.02 68.734 28 72c.98-3.266 4.107-8.12 7.56-12.645 3.127-4.06 6.627-6.813 8.633-8.54C50.54 45.31 56 37.423 56 27.997 56 12.552 43.447 0 28 0zm0 11.946a16.055 16.055 0 0116.053 16.051A16.05 16.05 0 0128 44.05a16.054 16.054 0 01-16.053-16.052A16.051 16.051 0 0128 11.946z" fill="#6091F8"/><path d="M44 28.5C44 37.613 36.837 45 28 45s-16-7.387-16-16.5S19.163 12 28 12s16 7.387 16 16.5z" fill="#fff"/><g filter="url(#filter0_f)"><ellipse cx="27.5" cy="72" rx="8.5" ry="2" fill="#6091F8"/></g><defs><filter id="filter0_f" x="11" y="62" width="33" height="20" filterUnits="userSpaceOnUse" color-interpolation-filters="sRGB"><feFlood flood-opacity="0" result="BackgroundImageFix"/><feBlend in="SourceGraphic" in2="BackgroundImageFix" result="shape"/><feGaussianBlur stdDeviation="4" result="effect1_foregroundBlur"/></filter></defs></svg>