<svg width="208" height="30" fill="none" xmlns="http://www.w3.org/2000/svg"><path d="M7.77 26.956l.657-2.193c-2.713-.203-4.768-.933-6.248-2.232C.739 21.23 0 19.567 0 17.497c0-2.842 1.151-5.156 3.412-7.023 2.26-1.868 5.262-2.76 9.002-2.76h1.151l.535-1.706h6.042l-.534 1.787c2.754.162 4.85.893 6.371 2.151 1.48 1.258 2.261 2.923 2.261 4.912 0 2.882-1.15 5.237-3.412 7.145-2.302 1.908-5.302 2.842-9.002 2.842h-1.315l-.658 2.151H7.769v-.04zm2.096-6.902l2.302-7.632h-.453c-1.603 0-2.877.406-3.905 1.218-1.027.812-1.562 1.908-1.562 3.288 0 .934.33 1.665.987 2.193.616.527 1.52.852 2.63.933zm6.001 0h.658c1.562 0 2.877-.406 3.905-1.177s1.562-1.867 1.562-3.248c0-.933-.329-1.664-1.028-2.192-.698-.568-1.603-.852-2.795-.933l-2.302 7.55zm12.127 6.049L33.79 6.779h5.92l-3.248 10.88 11.633-10.88h5.59L47.89 26.103h-5.92l3.247-10.88-11.633 10.88h-5.59zM49.164 30l2.548-8.566h1.768a25.449 25.449 0 003.206-4.75c.904-1.664 1.809-4.14 2.795-7.47l.7-2.394h16.77l-4.398 14.614h2.426L71.73 30h-5.056l1.192-3.857H56.07L54.507 30h-5.343zm10.728-8.566h6.7l3.043-10.068H64.62l-.658 1.909c-1.11 3.328-2.466 6.048-4.07 8.16z" fill="#6091F8"/><path d="M73.252 26.103L84.721 14.37l-4.81-7.592h6.536l4.44 7.998 2.425-7.998h6.002l-2.302 7.795 8.714-7.795h7.441l-10.03 8.322 4.439 11.002h-6.659l-2.795-7.267-3.124 2.477-1.44 4.79h-6l1.561-5.156-1.438-2.233-6.742 7.389h-7.687zm36.215 0l5.796-19.324h5.92l-3.248 10.88 11.633-10.88h5.591l-5.796 19.324h-5.919l3.247-10.88-11.633 10.88h-5.591zm24.993 0l5.632-18.755h8.879c1.932 0 3.453.365 4.604 1.136 1.151.772 1.726 1.787 1.726 3.126 0 1.3-.534 2.355-1.562 3.207-1.028.853-2.384 1.38-4.028 1.705 1.192.244 2.137.73 2.918 1.421.74.73 1.151 1.583 1.151 2.639 0 1.624-.781 2.923-2.384 3.978-1.562 1.015-3.7 1.543-6.413 1.543H134.46zm2.508-1.584h7.851c2.096 0 3.741-.365 4.974-1.055 1.233-.73 1.85-1.705 1.85-2.923 0-1.015-.494-1.786-1.48-2.354-.987-.569-2.261-.853-3.823-.853h-7.153l-2.219 7.186zm2.63-8.768h6.742c2.014 0 3.658-.365 4.892-1.096 1.233-.73 1.849-1.705 1.849-2.882 0-1.868-1.521-2.802-4.562-2.802h-6.865l-2.056 6.78zm28.94 10.799c-2.714 0-4.892-.731-6.578-2.193-1.685-1.461-2.548-3.369-2.548-5.683 0-3.004 1.192-5.724 3.576-8.16 2.384-2.395 5.262-3.613 8.591-3.613 2.508 0 4.481.69 5.879 2.07 1.397 1.381 2.096 3.086 2.096 5.116a9.366 9.366 0 01-.575 3.288h-17.265c-.041.528-.082.974-.082 1.258 0 1.908.657 3.41 1.932 4.547 1.274 1.137 2.959 1.705 5.015 1.705 2.507 0 4.891-.852 7.152-2.517l1.192 1.3c-2.631 1.907-5.385 2.882-8.385 2.882zm-6.495-10.799h15.25c.124-.446.165-.974.165-1.542 0-1.624-.494-2.964-1.521-4.02-.987-1.055-2.467-1.583-4.44-1.583-2.261 0-4.234.69-5.96 2.07-1.686 1.34-2.878 3.045-3.494 5.075zm34.2-8.241c2.796 0 5.057.73 6.783 2.192 1.727 1.462 2.59 3.41 2.59 5.765 0 2.882-1.275 5.48-3.823 7.713-2.549 2.233-5.344 3.37-8.386 3.37-3.083 0-5.426-.772-7.029-2.315-1.603-1.542-2.425-3.531-2.425-6.008 0-1.136.123-2.314.328-3.532.206-1.217.617-2.516 1.193-3.856a18.33 18.33 0 012.096-3.735 12.455 12.455 0 013.206-2.963 12.586 12.586 0 014.44-1.786L207.548 0 208 1.624 195.832 4.06c-2.26.446-4.069 1.258-5.385 2.395-1.315 1.136-2.343 2.72-3.083 4.75h.165c2.384-2.477 5.303-3.695 8.714-3.695zm-.287 1.624c-2.631 0-4.933.934-6.906 2.76-1.973 1.827-2.96 3.979-2.96 6.496 0 1.908.617 3.45 1.891 4.668 1.233 1.218 3.042 1.827 5.426 1.827 2.467 0 4.768-.974 6.824-2.882 2.096-1.908 3.124-4.1 3.124-6.577 0-1.948-.658-3.45-1.973-4.587-1.274-1.137-3.083-1.705-5.426-1.705z" fill="#6091F8"/></svg>