<svg width="808" height="120" fill="none" xmlns="http://www.w3.org/2000/svg"><g opacity=".2" fill="#6091F8"><path d="M30.3 107.695l2.565-8.55c-10.581-.791-18.597-3.641-24.368-8.707C2.886 85.37 0 78.88 0 70.806c0-11.083 4.489-20.107 13.306-27.39 8.818-7.283 20.52-10.766 35.11-10.766h4.488L54.988 26h23.567l-2.084 6.967c10.741.633 18.917 3.483 24.849 8.39 5.771 4.909 8.817 11.4 8.817 19.158 0 11.24-4.489 20.423-13.306 27.864-8.978 7.442-20.68 11.083-35.11 11.083h-5.13l-2.564 8.391H30.3v-.158zm8.176-26.915l8.978-29.765H45.69c-6.252 0-11.222 1.584-15.23 4.75-4.008 3.166-6.092 7.441-6.092 12.824 0 3.642 1.283 6.491 3.848 8.55 2.404 2.058 5.931 3.324 10.26 3.641zm23.406 0h2.565c6.092 0 11.222-1.583 15.23-4.591 4.008-3.008 6.092-7.283 6.092-12.666 0-3.642-1.282-6.491-4.008-8.55-2.725-2.216-6.252-3.324-10.901-3.641L61.882 80.78zm47.294 23.589l22.604-75.362h23.086l-12.665 42.43 45.369-42.43h21.803l-22.604 75.362h-23.086l12.665-42.43-45.369 42.43h-21.803zm82.562 15.199l9.94-33.406h6.893c4.97-5.858 9.138-12.033 12.505-18.524 3.527-6.491 7.054-16.149 10.901-29.132l2.726-9.34h65.409l-17.154 56.996h9.459l-12.665 33.406h-19.719l4.649-15.041h-46.011l-6.092 15.041h-20.841zm41.843-33.406h26.131l11.864-39.264h-19.559l-2.565 7.44c-4.329 12.983-9.619 23.59-15.871 31.824z"/><path d="M285.683 104.369l44.729-45.755-18.757-29.607h25.49l17.314 31.19 9.459-31.19h23.406l-8.978 30.398 33.987-30.398h29.018l-39.118 32.456 17.314 42.906h-25.971l-10.901-28.34-12.184 9.658-5.611 18.682h-23.407l6.092-20.107-5.611-8.708-26.291 28.815h-29.98zm141.239 0l22.605-75.362h23.085l-12.665 42.43 45.37-42.43h21.803l-22.605 75.362H481.43l12.665-42.43-45.37 42.43h-21.803z"/></g><path d="M521 101.801l21.963-73.145h34.629c7.534 0 13.466 1.425 17.955 4.433 4.489 3.008 6.733 6.966 6.733 12.19 0 5.067-2.084 9.183-6.092 12.508-4.008 3.325-9.298 5.383-15.711 6.65 4.649.95 8.337 2.85 11.383 5.54 2.885 2.85 4.489 6.175 4.489 10.292 0 6.333-3.046 11.399-9.299 15.515-6.092 3.958-14.428 6.017-25.009 6.017H521zm9.779-6.175H561.4c8.176 0 14.588-1.425 19.398-4.116 4.809-2.85 7.214-6.65 7.214-11.4 0-3.958-1.924-6.966-5.771-9.182-3.848-2.217-8.818-3.325-14.91-3.325h-27.895l-8.657 28.023zm10.261-34.198h26.291c7.856 0 14.269-1.424 19.078-4.274 4.81-2.85 7.214-6.65 7.214-11.241 0-7.283-5.931-10.924-17.795-10.924h-26.773l-8.015 26.44zm112.863 42.116c-10.581 0-19.078-2.85-25.651-8.55-6.573-5.7-9.94-13.14-9.94-22.165 0-11.716 4.65-22.323 13.948-31.823 9.298-9.34 20.52-14.09 33.506-14.09 9.779 0 17.475 2.691 22.925 8.074 5.451 5.383 8.176 12.032 8.176 19.949 0 4.75-.801 8.866-2.244 12.824H627.29c-.16 2.058-.32 3.8-.32 4.908 0 7.44 2.565 13.299 7.534 17.732 4.97 4.433 11.543 6.65 19.559 6.65 9.779 0 19.078-3.325 27.895-9.817l4.649 5.067c-10.26 7.44-21.001 11.241-32.704 11.241zm-25.33-42.114h59.477c.481-1.742.641-3.8.641-6.017 0-6.332-1.923-11.557-5.931-15.673-3.848-4.117-9.619-6.175-17.315-6.175-8.817 0-16.512 2.692-23.245 8.075-6.573 5.224-11.223 11.874-13.627 19.79zm133.383-32.14c10.902 0 19.719 2.85 26.452 8.549 6.733 5.7 10.1 13.3 10.1 22.482 0 11.24-4.97 21.373-14.909 30.081-9.94 8.708-20.841 13.141-32.705 13.141-12.023 0-21.162-3.008-27.414-9.025-6.252-6.016-9.459-13.774-9.459-23.431 0-4.433.481-9.025 1.283-13.774.802-4.75 2.405-9.816 4.649-15.041a71.603 71.603 0 018.176-14.566c3.207-4.274 7.375-8.232 12.505-11.557 5.13-3.325 10.901-5.7 17.314-6.966L806.043 0l1.764 6.333-47.454 9.5c-8.818 1.74-15.871 4.907-21.002 9.34-5.13 4.433-9.138 10.608-12.023 18.524h.641c9.298-9.658 20.681-14.407 33.987-14.407zm-1.122 6.333c-10.26 0-19.238 3.64-26.933 10.765-7.696 7.125-11.543 15.516-11.543 25.332 0 7.441 2.405 13.457 7.374 18.207 4.81 4.75 11.864 7.124 21.162 7.124 9.619 0 18.597-3.8 26.613-11.24 8.176-7.442 12.184-15.99 12.184-25.649 0-7.599-2.565-13.457-7.695-17.89-4.97-4.433-12.024-6.65-21.162-6.65z" opacity=".2" fill="#6091F8"/></svg>