<svg width="26" height="17" fill="none" xmlns="http://www.w3.org/2000/svg"><path d="M0 0v16.714h26V0H0zm1.857 1.857h22.286v13H1.857v-13zm1.857 1.857v1.857H13V3.714H3.714zm14.857 0v.987c-1.044.174-1.857 1.059-1.857 2.147 0 .7.388 1.342 1.016 1.654l2.699 1.364a.332.332 0 01-.349.348h-1.16a.332.332 0 01-.349-.348v-.58h-1.857v.58c0 1.088.813 1.973 1.857 2.148V13h1.858v-.987c1.044-.174 1.857-1.059 1.857-2.147 0-.7-.388-1.338-1.016-1.654l-2.7-1.364c0-.207.142-.348.349-.348h1.16c.207 0 .349.141.349.348v.58h1.857v-.58c0-1.088-.813-1.973-1.857-2.148v-.986H18.57zM3.714 6.5v1.857h6.5V6.5h-6.5zm2.322 2.786c-.562 0-.958.32-1.22.609a3.69 3.69 0 00-.609.958c-.312.692-.493 1.44-.493 2.147h1.857c0-.297.145-.943.349-1.393.058-.13.116-.174.174-.26.069.093.12.155.203.289.134.218.283.48.464.726.182.246.403.653 1.103.667.552.01.722-.189.9-.319.176-.13.3-.254.434-.378a6.36 6.36 0 01.233-.202c.026.036.127.097.638.318.62.272 1.56.552 2.931.552v-1.857c-1.142 0-1.737-.186-2.177-.377-.438-.192-.772-.552-1.537-.552-.56 0-.7.218-.871.348-.153.117-.257.24-.377.349-.054-.088-.08-.13-.145-.232a4.348 4.348 0 00-.61-.813c-.269-.272-.692-.58-1.247-.58z" fill="#6091F8"/></svg>