<svg width="19" height="19" fill="none" xmlns="http://www.w3.org/2000/svg"><path d="M7.898 11.095a11.343 11.343 0 004.128 2.73l2.104-1.71a.368.368 0 01.424 0l3.905 2.57c.148.09.274.216.367.365a1.153 1.153 0 01.103 1.012 1.142 1.142 0 01-.286.434l-1.83 1.846a2.223 2.223 0 01-.937.565 2.187 2.187 0 01-1.088.045 19.447 19.447 0 01-9.568-5.128A19.368 19.368 0 01.048 4.236a2.204 2.204 0 01.046-1.094 2.16 2.16 0 01.568-.929L2.558.345a1.114 1.114 0 01.914-.34 1.1 1.1 0 01.472.165c.143.09.265.212.355.357l2.6 3.937a.364.364 0 010 .427L5.186 6.993a11.268 11.268 0 002.712 4.102z" fill="#fff"/></svg>